<?xml version="1.0" standalone="no"?>
<!DOCTYPE svg PUBLIC "-//W3C//DTD SVG 20010904//EN"
 "http://www.w3.org/TR/2001/REC-SVG-20010904/DTD/svg10.dtd">
<svg version="1.0" xmlns="http://www.w3.org/2000/svg"
 width="5209.000000pt" height="5210.000000pt" viewBox="0 0 5209.000000 5210.000000"
 preserveAspectRatio="xMidYMid meet">

<g transform="translate(0.000000,5210.000000) scale(0.100000,-0.100000)"
fill="#000000" stroke="none">
<path d="M26510 45036 c-959 -360 -1835 -764 -2280 -1051 -115 -74 -199 -139
-394 -304 -99 -83 -187 -151 -197 -151 -9 0 -93 16 -186 36 -437 92 -506 106
-618 123 -66 11 -154 23 -195 26 -41 4 -86 9 -100 11 -14 2 -106 5 -205 8
-262 7 -550 -17 -795 -65 -216 -43 -803 -193 -1285 -330 -245 -69 -232 -60
-334 -239 -36 -62 -71 -115 -79 -118 -8 -3 -117 -22 -241 -42 -180 -29 -225
-39 -223 -50 3 -14 119 -321 462 -1230 76 -201 377 -999 670 -1775 293 -775
595 -1574 671 -1775 l138 -365 28 3 c15 2 224 34 463 73 239 38 518 83 620 99
102 16 313 50 470 76 376 60 892 143 1275 204 171 27 420 67 555 89 431 70
391 66 464 46 154 -42 356 24 439 142 l30 42 1531 612 c842 337 1533 613 1534
615 2 1 -35 106 -82 231 -47 126 -86 239 -86 251 0 11 9 84 20 162 11 77 21
155 22 173 1 42 -1632 4406 -1670 4461 -37 55 -100 86 -171 86 -45 -1 -96 -15
-251 -74z m298 -30 c15 -8 34 -22 43 -32 16 -18 1641 -4342 1643 -4372 1 -8
-80 -43 -226 -97 -684 -253 -1380 -550 -1816 -775 -371 -193 -519 -289 -837
-548 -133 -109 -222 -175 -226 -168 -4 6 -376 997 -827 2201 -451 1205 -825
2202 -831 2217 -10 26 -5 31 142 155 216 183 260 217 374 294 423 285 1294
688 2328 1078 171 65 191 69 233 47z m-4118 -1391 c69 -8 181 -27 250 -40 223
-44 681 -142 686 -148 5 -5 1671 -4443 1681 -4478 3 -10 -47 -59 -154 -150
l-158 -135 -375 -62 c-206 -34 -541 -89 -745 -122 -203 -33 -507 -83 -675
-111 -168 -27 -523 -86 -790 -130 -267 -43 -558 -91 -647 -106 -89 -15 -165
-24 -169 -20 -4 3 37 123 90 265 l97 259 202 57 c394 110 799 195 1097 231 30
4 66 8 80 10 64 10 488 45 600 49 69 3 290 5 492 6 320 0 369 2 382 16 21 20
20 40 -3 63 -12 12 -29 17 -47 15 -16 -2 -225 -4 -464 -5 -259 -1 -506 -7
-610 -15 -569 -44 -1123 -147 -1659 -309 -46 -14 -86 -23 -88 -21 -5 5 -1663
4429 -1666 4446 -2 17 10 21 448 141 402 111 936 243 1081 268 66 11 170 25
230 31 60 5 125 12 144 14 84 10 572 -4 690 -19z m-1826 -2759 l823 -2198 -85
-227 c-46 -124 -87 -229 -91 -233 -4 -4 -384 1016 -845 2268 -623 1691 -836
2280 -830 2293 5 11 50 89 99 175 68 118 92 151 98 138 4 -9 378 -1006 831
-2216z m7598 -640 l-37 -270 -490 -196 c-269 -109 -902 -363 -1405 -565 -503
-202 -924 -370 -935 -372 -21 -4 -140 86 -140 106 0 13 376 319 505 411 394
280 1245 677 2263 1056 111 41 218 81 237 88 19 8 36 13 37 12 0 0 -15 -122
-35 -270z"/>
<path d="M26425 44277 c-330 -134 -940 -434 -1077 -529 -44 -30 -33 -88 17
-88 11 0 56 21 100 47 240 139 780 397 1080 515 52 21 60 28 63 53 4 28 -18
55 -42 55 -6 0 -69 -24 -141 -53z"/>
<path d="M26090 43250 c-61 -17 -450 -224 -648 -344 -199 -120 -392 -262 -532
-388 -84 -76 -227 -235 -233 -259 -3 -11 3 -29 12 -41 25 -30 58 -18 101 38
63 82 251 254 398 364 206 154 483 317 856 505 54 28 101 56 103 63 8 18 -5
59 -19 64 -7 3 -24 2 -38 -2z"/>
<path d="M27005 42714 c-55 -25 -179 -79 -275 -122 -233 -102 -751 -359 -931
-462 -287 -164 -543 -349 -756 -546 -53 -48 -93 -93 -93 -104 0 -78 45 -68
160 36 221 201 448 365 726 524 277 159 766 397 1175 571 163 69 169 73 169
103 0 59 -43 58 -175 0z"/>
<path d="M26790 41946 c-732 -350 -952 -462 -1155 -589 -155 -97 -386 -279
-489 -385 -31 -33 -37 -45 -32 -66 4 -16 16 -28 31 -32 21 -5 36 4 88 50 214
194 423 345 656 472 68 37 317 161 555 275 627 303 620 300 624 327 4 29 -14
52 -42 51 -11 0 -118 -46 -236 -103z"/>
<path d="M26380 41119 c-537 -274 -767 -421 -981 -627 -81 -78 -89 -90 -81
-111 5 -14 18 -28 30 -32 19 -7 39 6 125 83 255 226 452 351 955 602 170 85
275 143 282 156 14 26 -10 70 -38 70 -9 -1 -141 -64 -292 -141z"/>
<path d="M27485 40926 c-606 -214 -1320 -560 -1665 -809 -115 -82 -251 -199
-294 -252 -37 -45 -44 -73 -24 -93 27 -27 58 -13 120 53 223 239 735 538 1408
822 174 74 442 176 570 218 104 33 129 53 112 90 -17 37 -53 32 -227 -29z"/>
<path d="M22380 43079 c-179 -8 -368 -29 -525 -59 -240 -46 -972 -237 -1002
-262 -16 -13 -17 -50 -1 -66 19 -19 49 -15 230 38 307 87 687 179 896 215 351
60 856 54 1225 -16 60 -11 117 -17 128 -14 25 8 36 52 17 71 -30 30 -361 80
-588 89 -74 3 -155 7 -180 8 -25 2 -115 0 -200 -4z"/>
<path d="M22395 42505 c-232 -23 -350 -45 -760 -145 -303 -74 -609 -156 -637
-171 -23 -13 -23 -51 1 -73 17 -16 26 -15 147 20 189 53 741 189 884 218 129
26 302 51 425 60 96 8 495 9 575 1 143 -14 313 -36 380 -50 98 -21 127 -19
140 5 16 30 3 57 -33 69 -38 12 -244 46 -372 62 -139 17 -588 19 -750 4z"/>
<path d="M22735 41963 c-286 -23 -417 -45 -840 -144 -462 -108 -596 -145 -617
-170 -22 -25 -10 -63 21 -67 12 -2 111 19 219 47 710 181 1022 238 1337 242
66 1 128 5 137 10 26 14 32 48 12 70 -15 17 -30 19 -123 17 -58 -1 -124 -3
-146 -5z"/>
<path d="M22985 41413 c-128 -8 -405 -43 -505 -63 -151 -30 -543 -129 -770
-195 -280 -80 -290 -84 -300 -109 -9 -24 2 -51 25 -60 8 -3 133 28 278 70 463
133 752 200 1037 240 158 22 600 27 785 9 134 -13 367 -49 400 -61 21 -8 65
22 65 45 0 10 -8 25 -17 34 -20 17 -258 59 -438 77 -121 11 -465 20 -560 13z"/>
<path d="M23006 40914 c-72 -8 -192 -26 -267 -39 -167 -30 -818 -191 -836
-207 -8 -6 -13 -25 -11 -42 2 -25 8 -32 30 -34 15 -2 163 31 328 73 570 143
748 169 1150 169 278 -1 427 -13 664 -56 116 -22 119 -22 132 -3 20 27 17 53
-8 69 -29 18 -236 53 -425 71 -186 18 -585 17 -757 -1z"/>
<path d="M23181 40394 c-157 -17 -368 -53 -401 -68 -30 -13 -36 -43 -16 -71
14 -19 15 -19 118 -1 456 81 891 84 1298 11 155 -28 165 -28 179 -12 7 9 11
28 9 44 -3 24 -9 30 -53 40 -62 16 -285 49 -425 63 -139 14 -553 10 -709 -6z"/>
<path d="M23739 39857 c-2 -3 -62 -7 -134 -11 -289 -13 -641 -82 -1270 -248
-167 -44 -195 -57 -195 -93 0 -50 27 -50 213 -1 237 63 689 170 822 195 437
81 937 79 1358 -5 74 -15 80 -15 98 2 25 23 24 50 -3 67 -37 23 -266 61 -493
81 -83 8 -390 17 -396 13z"/>
<path d="M34495 45009 c-453 -42 -903 -203 -1280 -460 -329 -224 -619 -531
-814 -863 -257 -438 -384 -890 -385 -1381 -1 -225 6 -327 35 -494 150 -868
696 -1599 1484 -1987 138 -68 228 -103 474 -184 413 -136 548 -169 801 -195
509 -52 1017 42 1495 275 275 134 482 280 703 494 447 434 723 973 824 1610
19 118 22 181 22 391 0 261 -7 338 -50 555 -83 415 -263 814 -521 1152 -102
134 -321 358 -452 464 -463 372 -1031 588 -1601 610 -74 3 -182 9 -239 15
-122 11 -368 10 -496 -2z m855 -114 c672 -65 1321 -400 1754 -906 373 -435
595 -956 651 -1529 10 -101 7 -415 -5 -520 -53 -474 -221 -914 -493 -1294
-389 -544 -969 -922 -1626 -1060 -405 -86 -842 -75 -1228 29 -730 199 -1337
683 -1681 1345 -202 389 -303 801 -303 1240 -1 293 32 522 112 793 128 430
391 858 719 1170 449 427 1022 683 1650 736 100 9 340 6 450 -4z"/>
<path d="M34860 44537 c-128 -67 -113 -265 23 -316 139 -53 281 96 223 232
-41 96 -152 134 -246 84z"/>
<path d="M35975 44331 c-95 -44 -133 -148 -86 -239 33 -66 82 -94 158 -93 183
2 235 256 69 332 -52 23 -90 23 -141 0z"/>
<path d="M33840 44188 c-135 -37 -176 -212 -71 -301 89 -75 213 -51 269 53 43
81 11 190 -67 229 -49 24 -89 30 -131 19z"/>
<path d="M36814 43591 c-166 -76 -113 -331 69 -331 161 0 238 192 121 302 -55
51 -120 61 -190 29z"/>
<path d="M35352 43508 c-5 -7 -41 -148 -80 -313 -39 -165 -105 -443 -146 -618
-42 -175 -78 -323 -82 -328 -3 -6 -320 -219 -705 -474 -666 -443 -699 -465
-699 -494 0 -33 22 -51 52 -43 15 4 1415 927 1437 948 7 6 301 1266 301 1289
0 11 -5 26 -12 33 -16 16 -53 15 -66 0z"/>
<path d="M33107 43338 c-76 -16 -137 -91 -137 -169 0 -48 38 -119 79 -146 117
-78 271 7 271 149 0 49 -32 111 -70 139 -34 25 -97 37 -143 27z"/>
<path d="M37160 42549 c-33 -13 -68 -47 -87 -82 -20 -39 -19 -117 3 -162 56
-119 245 -121 305 -3 46 91 14 199 -73 244 -31 16 -111 18 -148 3z"/>
<path d="M32850 42218 c-110 -59 -125 -211 -30 -291 78 -66 218 -38 265 53 21
41 21 119 0 164 -40 83 -151 118 -235 74z"/>
<path d="M36965 41426 c-37 -17 -80 -62 -94 -99 -27 -72 0 -165 60 -208 38
-27 113 -36 162 -20 71 24 127 120 113 194 -20 107 -145 176 -241 133z"/>
<path d="M33185 41167 c-47 -26 -85 -92 -85 -149 0 -187 254 -243 331 -74 71
156 -96 307 -246 223z"/>
<path d="M36204 40591 c-130 -59 -137 -241 -11 -312 51 -28 138 -24 185 10 88
62 96 199 16 272 -55 50 -122 61 -190 30z"/>
<path d="M34083 40450 c-62 -14 -106 -53 -130 -115 -17 -45 -15 -84 8 -132 80
-166 329 -108 329 76 0 115 -98 195 -207 171z"/>
<path d="M35145 40226 c-65 -28 -114 -120 -101 -189 22 -119 150 -181 255
-125 86 46 116 158 66 244 -42 72 -143 104 -220 70z"/>
<path d="M12383 42968 c-29 -4 -73 -17 -98 -29 -26 -12 -189 -144 -365 -295
-373 -319 -529 -445 -735 -592 -185 -132 -228 -170 -260 -236 -55 -113 -54
-241 5 -342 16 -27 146 -170 292 -320 336 -345 508 -550 695 -829 100 -150
276 -454 270 -468 -3 -7 -72 -59 -155 -115 -159 -108 -200 -152 -223 -236 -17
-63 -7 -163 21 -218 14 -26 146 -190 293 -364 148 -173 267 -317 265 -318 -1
-2 -75 -57 -164 -123 -88 -66 -173 -136 -189 -154 -119 -141 -108 -366 25
-500 35 -35 70 -56 160 -93 628 -262 1132 -563 1599 -955 184 -155 190 -159
249 -181 40 -15 80 -22 134 -22 93 0 157 24 278 104 103 67 177 115 515 333
623 402 1012 691 1475 1096 185 162 1038 1003 1094 1079 18 25 39 62 46 84 15
48 16 142 1 187 -6 19 -75 127 -153 241 -79 114 -177 258 -218 318 -477 705
-871 1192 -1409 1742 -216 222 -494 478 -549 508 -63 33 -184 35 -253 4 -34
-16 -165 -141 -540 -518 -273 -273 -500 -496 -505 -496 -5 0 -29 37 -53 83
-145 272 -352 581 -551 823 -217 263 -656 698 -769 761 -66 38 -150 53 -228
41z m150 -108 c46 -17 89 -53 271 -226 386 -367 645 -676 875 -1048 61 -98
390 -687 450 -805 42 -81 51 -68 -382 -504 -403 -405 -536 -527 -762 -696
-162 -121 -257 -181 -300 -188 -44 -7 -96 11 -127 45 -13 15 -116 187 -228
382 -218 379 -300 513 -418 680 -95 134 -276 358 -386 479 -47 51 -86 97 -86
101 0 4 85 72 189 149 104 78 201 158 216 177 67 87 90 207 61 308 -22 75 -24
78 -195 291 -79 99 -148 185 -152 191 -5 6 19 33 64 70 39 32 202 171 361 308
160 136 301 255 313 263 69 46 154 54 236 23z m2737 -694 c51 -34 575 -551
743 -734 415 -450 741 -866 1132 -1442 65 -96 137 -202 160 -235 164 -239 197
-289 185 -279 -85 64 -566 412 -648 468 -396 271 -896 517 -1402 691 -444 152
-560 179 -672 156 -96 -20 -131 -52 -349 -313 -589 -706 -1000 -1096 -1727
-1642 -186 -140 -226 -166 -237 -155 -64 71 -520 617 -535 641 -10 18 -22 49
-25 70 -10 51 17 137 52 169 26 24 290 209 298 209 2 0 49 -80 105 -177 57
-98 113 -192 126 -210 35 -46 119 -84 187 -84 67 0 104 15 215 87 275 179 576
447 1051 935 214 220 292 306 301 334 25 77 10 125 -99 324 -55 101 -101 187
-101 191 0 3 64 65 143 138 78 73 301 295 496 493 195 198 364 367 376 375 57
37 160 33 225 -10z m-3644 -208 c82 -101 159 -204 172 -230 45 -88 24 -214
-46 -281 -15 -14 -108 -87 -207 -161 l-180 -136 -171 173 c-101 102 -178 188
-189 212 -39 84 -30 193 23 268 23 31 422 335 444 336 3 1 73 -81 154 -181z
m3294 -1263 c55 -7 431 -127 635 -202 374 -138 758 -327 1099 -540 67 -41 291
-199 498 -350 l378 -274 -15 -35 c-17 -42 -611 -651 -865 -888 -428 -400 -801
-700 -1259 -1015 -187 -129 -1007 -660 -1062 -688 -63 -33 -141 -40 -212 -19
-44 13 -75 33 -144 93 -474 413 -1046 768 -1636 1012 -149 62 -183 81 -213
114 -89 98 -101 234 -30 345 13 19 191 160 441 349 231 174 463 351 515 392
283 223 560 473 836 752 230 235 357 376 614 684 100 121 197 230 214 243 33
23 105 42 141 36 11 -1 40 -5 65 -9z"/>
<path d="M12758 41922 c-273 -314 -585 -620 -785 -771 -77 -58 -84 -66 -81
-95 4 -44 45 -48 101 -9 65 44 221 176 345 292 195 183 617 645 628 689 8 29
-12 52 -45 52 -21 0 -52 -30 -163 -158z"/>
<path d="M13129 41518 c-175 -212 -510 -530 -791 -752 -62 -48 -88 -76 -88
-91 0 -27 18 -45 47 -45 26 0 217 149 407 319 251 226 586 586 586 632 0 20
-31 49 -52 49 -9 0 -58 -51 -109 -112z"/>
<path d="M41748 42958 c-13 -11 -17 -45 -23 -189 -6 -157 -5 -177 10 -192 21
-21 49 -22 69 -1 13 13 16 44 17 172 1 86 0 166 -1 177 -3 27 -19 45 -39 45
-10 0 -24 -6 -33 -12z"/>
<path d="M41043 42259 c-16 -6 -23 -17 -23 -37 0 -49 10 -52 200 -52 185 0
200 3 200 46 0 42 -22 48 -193 50 -89 1 -172 -2 -184 -7z"/>
<path d="M42117 42242 c-23 -25 -21 -48 5 -66 18 -13 54 -16 189 -16 151 0
167 2 183 19 22 24 13 59 -16 70 -11 4 -93 8 -182 10 -148 2 -163 1 -179 -17z"/>
<path d="M41725 41856 c-18 -13 -20 -30 -23 -190 -4 -188 -1 -206 43 -206 43
0 49 21 53 202 4 151 2 171 -14 189 -20 23 -34 24 -59 5z"/>
<path d="M9013 39824 c-57 -21 -123 -81 -158 -145 -27 -48 -30 -63 -30 -139 0
-102 22 -157 84 -218 65 -63 122 -86 216 -86 98 -1 154 22 219 89 121 124 112
327 -19 443 -25 22 -67 48 -92 56 -57 20 -164 19 -220 0z"/>
<path d="M35410 38474 c-14 -3 -99 -18 -190 -34 -91 -16 -403 -73 -695 -125
-291 -53 -618 -111 -725 -131 -107 -19 -343 -62 -525 -95 -181 -32 -404 -73
-495 -89 -91 -16 -428 -77 -750 -135 -322 -58 -745 -135 -940 -170 -195 -35
-582 -105 -860 -155 -278 -50 -552 -99 -610 -110 -58 -11 -217 -40 -355 -64
-299 -54 -729 -131 -1222 -221 -871 -157 -1103 -199 -1338 -241 -834 -150
-1395 -251 -2765 -499 -382 -69 -868 -157 -1080 -195 -212 -38 -635 -114 -940
-169 -305 -55 -744 -134 -975 -176 -231 -42 -643 -116 -915 -165 -440 -80
-1189 -215 -1750 -316 -107 -19 -343 -62 -525 -95 -181 -32 -404 -73 -495 -89
-91 -16 -428 -77 -750 -135 -322 -58 -745 -135 -940 -170 -195 -35 -582 -105
-860 -155 -278 -50 -557 -100 -620 -111 -63 -12 -144 -30 -180 -41 -200 -61
-363 -222 -437 -433 l-28 -80 -3 -462 c-2 -255 -7 -463 -11 -463 -15 0 -234
50 -331 76 -778 207 -1437 540 -1964 994 -149 128 -359 349 -460 483 -48 64
-96 122 -106 127 -10 6 -33 10 -50 10 -26 0 -42 -11 -93 -67 -364 -403 -860
-715 -1610 -1015 -394 -157 -1003 -338 -1462 -433 -71 -15 -138 -32 -148 -37
-30 -15 -48 -70 -37 -109 16 -56 279 -580 403 -800 324 -580 683 -1091 1106
-1574 139 -159 564 -584 720 -720 606 -527 1272 -939 1921 -1188 80 -31 184
-67 233 -81 l88 -26 53 21 c30 11 148 66 263 124 510 253 960 570 1345 944
l138 134 0 -1432 c0 -1356 -1 -1431 -17 -1431 -10 0 -36 5 -58 10 -22 5 -114
18 -205 29 -460 57 -919 45 -1369 -35 -1337 -236 -2500 -1051 -3201 -2244 -89
-151 -240 -460 -305 -625 -158 -399 -279 -899 -309 -1282 -3 -40 -9 -106 -13
-145 -9 -100 -9 -480 1 -608 53 -742 256 -1407 627 -2055 195 -341 435 -651
739 -955 508 -508 1105 -881 1776 -1110 307 -105 647 -183 929 -214 28 -3 100
-11 160 -18 126 -13 620 -17 740 -5 222 22 280 29 393 47 837 136 1620 499
2272 1056 159 135 403 383 537 544 l112 134 643 117 c354 64 861 155 1128 203
267 49 656 119 865 156 209 38 632 115 940 170 1013 183 1606 290 1911 345
165 30 303 55 307 55 3 0 8 -397 9 -882 l3 -883 28 -100 c35 -127 109 -279
185 -381 110 -148 282 -290 447 -368 96 -46 2526 -1069 2650 -1116 133 -51
316 -90 445 -97 114 -6 12 -23 1300 217 173 32 513 95 755 140 242 45 593 110
780 145 187 35 341 62 342 61 2 -2 -34 -59 -80 -127 -229 -339 -304 -500 -371
-801 -60 -266 -76 -441 -71 -768 4 -252 14 -367 55 -629 l21 -134 -33 -41
c-315 -398 -784 -903 -908 -977 -268 -159 -708 -160 -1332 -3 -1066 267 -2808
1090 -4613 2177 -567 342 -762 491 -1215 933 -135 132 -279 264 -320 295 -215
161 -464 260 -810 323 -206 36 -317 45 -540 41 -306 -6 -574 -59 -850 -170
-585 -235 -1083 -740 -1079 -1094 0 -36 6 -80 12 -98 18 -48 98 -145 168 -203
58 -48 225 -140 255 -140 6 0 15 -21 19 -47 21 -140 102 -320 209 -465 375
-504 1120 -879 1917 -964 207 -22 543 -15 709 15 282 51 474 123 662 248 l67
45 353 -314 c2084 -1853 3760 -3136 4780 -3662 213 -110 337 -163 501 -217
182 -60 275 -72 517 -66 579 15 1205 153 2005 444 294 107 728 285 976 401
l107 50 43 -29 c64 -42 158 -69 244 -69 61 0 100 9 230 51 169 54 189 56 231
14 34 -34 31 -65 -22 -228 -179 -547 -507 -1225 -902 -1862 -490 -790 -1018
-1468 -1811 -2327 l-63 -68 44 0 c23 0 160 9 303 20 231 17 320 24 565 45 36
4 155 15 265 26 110 11 247 24 305 30 58 5 179 18 270 29 91 11 208 24 260 30
156 17 206 23 525 65 411 54 1060 152 1552 236 l252 43 3 195 c2 108 4 1402 6
2876 1 1474 5 2707 8 2740 49 599 352 1149 825 1501 320 238 642 363 1004 388
44 4 193 15 330 26 138 11 338 26 445 35 107 8 220 17 250 20 30 2 89 7 130
10 41 3 100 8 130 10 54 5 431 35 700 56 1177 92 2246 323 3325 720 835 307
1613 694 2380 1184 88 56 183 114 210 127 75 38 209 83 310 104 117 24 347 24
454 1 52 -12 77 -14 82 -6 3 6 9 38 12 72 4 34 17 172 31 307 28 273 52 564
61 745 4 66 8 134 10 150 7 54 20 545 20 765 0 203 -12 640 -20 705 -1 17 -6
75 -10 130 -5 86 -19 226 -41 420 -39 355 -135 794 -244 1127 -340 1035 -954
1621 -1810 1728 -105 13 -363 25 -530 25 -144 0 -553 -13 -590 -19 -14 -2 -71
-7 -127 -10 -116 -8 -111 -9 -275 90 -573 347 -897 843 -963 1474 -20 192 9
640 41 640 32 0 288 92 404 144 522 237 996 575 1278 911 378 451 478 959 272
1392 -54 115 -111 196 -199 284 -96 95 -172 151 -281 205 -151 76 -291 105
-496 105 -175 -1 -167 -7 -205 177 -45 226 -105 450 -184 687 -197 595 -379
912 -715 1245 -146 145 -265 234 -405 301 -128 61 -206 81 -323 81 -87 1 -97
-2 -165 -35 -93 -46 -191 -129 -300 -256 -112 -128 -118 -129 -220 -33 -40 37
-93 85 -119 106 l-48 38 -2 3172 c-3 2976 -4 3175 -20 3228 -43 141 -146 286
-247 348 -22 14 -41 32 -41 40 0 9 -65 50 -167 105 -93 49 -206 110 -253 135
-213 117 -381 200 -444 219 -67 21 -207 34 -256 25z m945 -528 c163 -44 291
-160 357 -324 l23 -57 3 -3144 2 -3143 -22 14 c-296 192 -604 327 -883 387
-213 45 -390 41 -603 -13 -335 -85 -539 -194 -738 -391 -213 -212 -418 -566
-509 -880 -45 -156 -58 -270 -52 -455 8 -246 53 -419 172 -665 104 -215 260
-443 451 -659 l87 -99 -26 -106 c-21 -86 -47 -241 -47 -284 0 -5 -6 -7 -13 -4
-7 3 -167 29 -355 58 -311 48 -344 52 -358 37 -20 -20 -42 -171 -50 -353 -10
-216 21 -407 88 -539 56 -110 145 -186 272 -230 13 -4 16 -11 11 -24 -26 -60
-28 -90 -11 -135 14 -38 46 -71 196 -204 98 -87 181 -165 185 -173 7 -15 10
-104 20 -605 7 -330 11 -401 32 -475 35 -127 141 -270 230 -308 94 -40 291
-49 578 -26 58 4 85 7 211 20 l61 6 49 -56 c101 -113 238 -376 372 -716 131
-330 166 -475 166 -695 1 -152 -22 -303 -48 -324 -6 -4 -101 -25 -211 -44
-596 -108 -1185 -214 -1450 -262 -476 -86 -1529 -276 -2015 -364 -245 -44
-634 -114 -865 -156 -231 -42 -582 -105 -780 -141 -198 -35 -407 -73 -465 -84
-58 -11 -357 -65 -665 -120 -308 -56 -744 -134 -970 -175 -225 -41 -599 -108
-830 -150 -231 -42 -604 -109 -830 -150 -1135 -205 -1814 -328 -2135 -385
-157 -28 -319 -57 -360 -65 -41 -8 -352 -64 -690 -125 -338 -61 -662 -119
-720 -130 -58 -11 -269 -49 -470 -85 -630 -114 -841 -152 -1330 -240 -261 -47
-612 -111 -780 -141 -168 -30 -492 -89 -720 -130 -228 -41 -500 -90 -605 -109
-104 -19 -377 -68 -605 -109 -228 -41 -579 -105 -780 -141 -201 -36 -412 -74
-470 -85 -142 -26 -679 -123 -919 -166 -107 -19 -195 -33 -197 -31 -2 1 31 52
72 112 719 1050 979 2346 723 3600 -311 1518 -1384 2805 -2821 3386 l-158 63
0 1994 0 1994 75 131 c308 537 530 1139 640 1736 20 112 19 126 -12 161 -27
29 -31 30 -143 35 -316 14 -441 21 -517 31 l-43 5 0 267 c0 147 5 296 10 332
25 154 141 310 282 379 68 34 119 44 1048 211 91 16 453 82 805 145 352 64
777 141 945 171 448 81 628 113 1215 219 292 53 665 120 830 150 165 30 463
84 663 120 199 36 525 94 725 130 199 36 497 90 662 120 283 51 576 104 1745
315 817 148 1646 297 1965 355 165 30 462 83 660 119 198 36 522 94 720 130
845 153 1704 308 2330 421 286 51 860 155 1275 230 415 75 1016 183 1335 241
319 58 717 130 885 160 168 30 492 89 720 130 228 41 528 95 665 120 138 25
410 74 605 109 531 96 1269 229 1585 286 154 27 287 51 295 53 39 9 180 4 225
-8z m-25712 -3356 c152 -191 365 -398 590 -573 816 -637 1933 -1018 3197
-1093 58 -3 121 -8 140 -9 19 -2 77 -3 129 -4 l94 -1 -7 -52 c-23 -180 -143
-621 -236 -873 -94 -253 -254 -604 -356 -782 -156 -273 -283 -468 -432 -663
-435 -571 -981 -1044 -1612 -1396 -160 -89 -446 -232 -497 -248 -45 -14 -406
122 -701 264 -1300 629 -2429 1742 -3278 3230 -89 157 -352 672 -391 766 l-21
51 107 22 c704 146 1473 405 2031 686 441 221 732 422 990 685 l135 137 25
-31 c14 -16 56 -69 93 -116z m24145 -6209 c166 -142 492 -311 764 -397 103
-32 129 -35 -512 65 -179 28 -335 53 -347 56 -20 5 -23 12 -23 48 1 70 43 277
56 277 3 0 31 -22 62 -49z m-623 -291 c110 -17 240 -37 289 -45 49 -8 94 -15
99 -15 24 0 -43 -269 -107 -434 -80 -204 -195 -416 -227 -416 -10 0 -44 10
-76 21 -107 40 -186 150 -229 314 -14 55 -18 111 -18 265 -1 107 3 230 7 273
9 78 9 78 35 73 15 -3 117 -19 227 -36z m640 -99 c66 -11 309 -49 540 -86 675
-106 788 -124 792 -128 2 -3 -21 -39 -52 -82 -56 -78 -66 -113 -41 -135 30
-24 59 -7 113 70 77 109 125 155 206 195 133 65 251 70 364 14 185 -90 214
-312 76 -589 -38 -77 -63 -111 -128 -175 -131 -131 -264 -182 -445 -171 -52 3
-109 8 -126 12 -62 12 -87 -57 -30 -85 40 -19 164 -28 266 -18 161 15 288 76
407 195 64 64 93 87 80 65 -7 -13 12 -241 29 -338 70 -413 239 -691 489 -805
110 -50 311 -100 486 -120 106 -13 335 -16 425 -6 32 4 85 8 118 10 l58 4 -7
-51 c-28 -199 -28 -501 -1 -677 56 -360 186 -659 402 -926 301 -373 766 -663
1382 -864 152 -49 178 -64 188 -105 11 -46 -5 -71 -112 -178 -502 -505 -1207
-785 -2164 -862 -127 -10 -537 -12 -695 -4 -513 27 -1051 117 -1517 254 -198
59 -298 116 -298 171 0 33 65 101 137 143 296 172 463 366 552 637 43 131 55
231 48 403 -8 217 -43 354 -172 681 -170 429 -347 739 -459 805 -41 24 -46 25
-122 15 -218 -28 -560 -38 -671 -19 -64 11 -71 14 -129 73 -67 68 -110 147
-124 229 -13 78 -19 222 -26 637 -3 206 -10 390 -16 407 -7 24 -49 68 -146
155 -205 182 -242 219 -242 245 0 12 25 61 56 107 167 257 309 602 346 844 9
54 15 72 27 72 9 0 70 -9 136 -19z m-21700 -890 c751 -92 1426 -343 2029 -754
l119 -82 -39 -8 c-22 -5 -109 -6 -194 -4 -236 7 -382 52 -763 234 -156 75
-185 86 -231 85 -89 -1 -181 -53 -217 -123 -24 -48 -24 -82 1 -134 41 -85 131
-122 330 -135 139 -9 193 -22 266 -65 95 -56 185 -194 206 -317 11 -63 11 -68
-18 -124 -66 -132 -138 -129 -342 12 -168 116 -270 151 -366 124 -52 -14 -110
-59 -132 -102 -22 -43 -13 -87 51 -248 71 -181 77 -204 84 -359 7 -132 7 -134
35 -156 16 -13 101 -55 190 -94 303 -134 440 -236 519 -388 45 -86 97 -141
205 -217 132 -93 131 -91 147 -288 9 -119 24 -169 62 -207 33 -33 34 -34 106
-29 89 6 163 40 242 109 62 54 88 64 138 55 70 -13 102 -84 95 -210 -5 -87
-33 -176 -123 -396 -26 -63 -61 -167 -78 -230 -27 -104 -30 -130 -31 -270 -1
-173 15 -248 58 -289 53 -50 112 -26 220 90 193 209 450 631 570 937 69 177
89 271 90 427 1 160 -9 373 -24 496 -33 269 -84 426 -235 724 -113 225 -145
317 -159 459 l-5 48 21 -18 c74 -66 316 -372 438 -554 437 -655 699 -1418 758
-2210 14 -191 5 -766 -13 -823 -2 -7 -6 -39 -9 -72 -34 -354 -166 -849 -327
-1228 -317 -743 -820 -1389 -1460 -1874 -491 -372 -1060 -642 -1662 -788 -345
-83 -593 -114 -968 -122 -305 -6 -467 3 -749 43 -900 127 -1784 555 -2439
1180 l-85 81 3 181 c2 149 0 191 -14 232 -24 73 -106 156 -241 246 -208 138
-315 286 -349 480 -8 46 -24 103 -36 126 -48 96 -289 293 -381 313 -34 8 -37
13 -102 204 -99 289 -184 661 -211 921 -3 30 -8 64 -10 75 -12 62 -20 275 -19
530 1 228 6 329 23 472 23 193 67 453 80 466 4 4 15 -19 25 -50 26 -82 71
-169 121 -233 85 -111 99 -164 82 -322 -12 -124 -11 -130 67 -235 65 -88 95
-85 144 13 29 56 73 213 106 369 48 229 77 338 113 430 92 235 226 367 397
390 98 14 112 -19 35 -80 -63 -49 -144 -155 -164 -214 -19 -56 -19 -121 -1
-165 8 -19 39 -69 69 -112 96 -138 138 -242 139 -346 1 -75 -12 -118 -58 -195
-57 -95 -71 -175 -49 -288 19 -103 31 -125 139 -269 171 -227 195 -305 136
-451 -41 -104 -48 -186 -25 -329 41 -262 173 -594 332 -832 37 -57 95 -121
184 -204 77 -73 199 -205 300 -326 161 -193 253 -285 319 -319 36 -19 54 -19
88 -1 87 45 146 319 122 563 -19 196 -39 253 -174 510 -59 111 -79 214 -65
322 12 84 35 146 84 226 70 113 74 143 81 510 3 154 10 295 16 314 6 19 30 53
53 77 86 85 265 109 533 70 366 -53 542 27 618 279 23 75 23 276 1 414 -17
108 -14 173 15 326 38 202 25 259 -80 357 -64 60 -125 98 -287 181 -78 40
-178 103 -250 157 -204 153 -296 189 -359 139 -14 -11 -45 -53 -68 -92 -24
-40 -61 -91 -84 -114 -48 -51 -69 -53 -167 -19 -80 28 -127 26 -196 -8 -25
-13 -64 -33 -87 -44 -131 -66 -326 -49 -407 36 -64 68 -35 128 87 179 43 18
91 42 107 54 41 29 80 100 81 147 1 54 -23 93 -89 149 -148 125 -166 147 -176
209 -16 99 121 282 240 322 55 18 71 -4 93 -135 22 -134 44 -187 93 -230 75
-66 154 -59 332 31 161 81 204 96 267 96 101 0 186 -71 372 -312 201 -261 327
-339 411 -255 42 42 59 103 51 185 -7 85 -42 157 -109 230 -31 33 -65 79 -77
102 -31 61 -50 161 -50 268 0 110 -19 158 -79 197 -61 41 -97 47 -276 49 -150
1 -175 4 -215 22 -90 42 -105 77 -116 259 -8 139 6 216 48 258 24 25 34 29 64
24 48 -8 54 -14 119 -125 149 -250 233 -319 298 -242 58 68 93 256 91 490 0
182 -43 292 -127 331 -58 26 -89 24 -203 -13 -85 -27 -115 -31 -209 -32 -95
-1 -117 3 -162 23 -101 45 -178 155 -208 298 -26 123 -32 113 113 178 489 221
995 350 1542 394 183 15 644 5 835 -18z m23038 -3878 c-32 -59 -72 -118 -110
-161 -26 -30 -47 -37 -283 -101 -587 -160 -930 -282 -1322 -469 -1246 -596
-2678 -1767 -4067 -3327 -108 -121 -228 -257 -266 -302 -38 -46 -75 -83 -80
-83 -19 0 -1088 458 -1183 507 -312 160 -542 449 -612 770 -18 83 -19 135 -20
930 0 795 1 842 17 847 10 3 270 50 578 106 308 55 722 130 920 166 871 157
1091 197 1435 259 340 61 606 109 1380 249 168 31 780 141 1360 246 1553 280
1813 328 2045 370 116 21 216 39 222 39 8 1 2 -17 -14 -46z m-8043 -2205 c0
-517 4 -824 11 -883 48 -390 311 -750 684 -937 39 -20 311 -138 605 -263 294
-125 538 -231 543 -235 4 -3 -77 -110 -180 -236 -104 -126 -204 -251 -223
-277 -19 -26 -44 -49 -55 -52 -11 -3 -319 -59 -685 -125 -366 -67 -1171 -213
-1790 -326 -1100 -201 -1127 -205 -1220 -199 -185 12 -344 55 -585 157 -71 31
-184 78 -250 106 -66 28 -266 112 -445 187 -533 225 -890 375 -980 412 -214
87 -364 180 -488 301 -184 179 -304 418 -331 657 -5 44 -10 407 -10 807 l-1
727 52 10 c29 6 181 33 338 61 250 45 903 163 1690 305 135 24 484 87 775 140
292 52 778 140 1080 195 303 54 728 131 945 170 217 39 413 75 435 79 22 5 50
9 63 10 l22 1 0 -792z m-9060 -3374 c180 -11 491 -77 653 -138 83 -32 209 -95
281 -140 106 -69 215 -164 441 -386 392 -386 597 -546 1055 -827 1168 -716
2406 -1368 3385 -1783 621 -263 1193 -452 1635 -540 232 -46 411 -62 620 -57
268 7 411 43 561 138 106 67 468 449 759 799 62 74 118 141 125 148 10 11 16
-5 35 -85 162 -712 518 -1593 980 -2423 112 -202 347 -597 416 -700 24 -35 40
-68 36 -72 -23 -23 -665 -294 -934 -394 -597 -223 -1204 -388 -1618 -439 -30
-4 -62 -9 -70 -10 -8 -1 -53 -6 -100 -10 -47 -4 -94 -9 -105 -12 -11 -2 -112
-4 -225 -4 -170 -1 -221 3 -300 19 -595 127 -1692 832 -3267 2098 -780 628
-1670 1388 -2483 2123 -255 231 -283 253 -386 305 -96 47 -182 72 -320 91
-340 47 -485 102 -1171 444 -153 76 -311 150 -351 165 -213 76 -382 99 -827
111 -368 10 -496 31 -653 106 -62 30 -104 60 -162 116 -118 112 -138 168 -104
284 45 151 151 305 325 474 346 334 804 543 1304 594 183 19 244 20 465 5z
m-1530 -1653 c77 -11 190 -17 505 -26 300 -10 463 -35 648 -102 40 -14 215
-97 390 -185 655 -327 776 -371 1182 -433 191 -30 304 -83 453 -216 50 -45 92
-86 92 -90 0 -15 -121 -91 -214 -134 -659 -307 -1741 -167 -2487 323 -354 232
-586 503 -668 778 -27 92 -27 106 2 100 12 -3 56 -10 97 -15z"/>
<path d="M32730 35089 c-146 -27 -503 -92 -795 -145 -291 -52 -613 -110 -715
-129 -102 -18 -376 -68 -610 -110 -234 -42 -558 -100 -720 -130 -325 -59 -824
-149 -1550 -280 -261 -47 -574 -103 -695 -125 -121 -22 -395 -72 -610 -110
-214 -39 -437 -79 -495 -90 -58 -11 -204 -37 -325 -59 -241 -43 -767 -138
-1310 -236 -192 -35 -516 -93 -720 -130 -203 -37 -541 -98 -750 -135 -604
-110 -1309 -237 -1580 -286 -137 -25 -412 -74 -610 -110 -909 -165 -2291 -414
-2820 -509 -170 -30 -327 -63 -348 -72 -50 -22 -113 -91 -126 -139 -8 -28 -11
-1457 -11 -4834 0 -4630 1 -4796 19 -4835 32 -71 102 -124 182 -139 25 -4 138
12 365 53 181 33 493 90 694 126 201 36 527 95 725 131 198 36 446 80 550 99
105 19 478 86 830 150 787 142 1367 247 1800 325 300 54 736 133 2385 431 626
113 1028 185 1795 324 292 53 631 114 755 136 124 22 333 60 465 84 132 24
366 66 520 94 154 28 543 98 865 156 322 58 747 135 945 171 198 35 470 85
605 109 135 24 434 78 665 120 886 160 1030 187 1056 201 39 19 83 67 105 111
19 37 19 148 22 4818 2 3469 0 4794 -8 4832 -24 110 -116 184 -230 182 -30 -1
-174 -23 -320 -50z m373 -53 c18 -7 43 -26 57 -41 l25 -27 3 -4802 2 -4803
-23 -34 c-12 -19 -34 -40 -49 -47 -14 -6 -264 -55 -554 -107 -291 -53 -691
-125 -889 -161 -198 -36 -497 -90 -665 -120 -319 -57 -962 -174 -1380 -249
-135 -24 -459 -83 -720 -130 -261 -47 -635 -115 -830 -150 -195 -35 -555 -100
-800 -144 -245 -44 -758 -137 -1140 -206 -382 -69 -832 -151 -1000 -181 -168
-30 -467 -84 -665 -120 -198 -36 -470 -85 -605 -109 -901 -163 -1237 -223
-1550 -280 -195 -35 -519 -94 -720 -130 -201 -36 -527 -95 -725 -131 -198 -36
-470 -85 -605 -109 -425 -77 -1181 -213 -1575 -285 -604 -109 -563 -106 -622
-44 l-33 35 -1 4762 c0 2619 -2 4773 -4 4787 -4 36 29 105 59 125 17 11 189
47 489 101 254 46 487 88 517 94 30 6 231 42 445 80 215 39 476 86 580 105
166 30 671 121 1495 270 135 24 457 82 715 129 259 47 598 108 755 136 157 28
330 59 385 70 55 10 217 39 360 65 143 25 305 54 360 65 55 10 204 37 330 60
127 22 277 49 335 60 58 11 281 51 495 90 215 38 703 126 1085 195 382 69 871
157 1085 196 215 39 523 95 685 124 162 29 421 76 575 104 255 46 541 97 1590
287 1001 181 1727 312 2185 394 217 39 413 75 435 79 59 13 72 12 108 -3z"/>
<path d="M32010 32654 c-8 -2 -141 -26 -295 -53 -327 -59 -749 -135 -1695
-306 -377 -68 -1236 -223 -1910 -345 -1364 -246 -1804 -325 -2245 -405 -165
-30 -487 -88 -715 -129 -228 -41 -552 -100 -720 -130 -168 -30 -793 -143
-1390 -251 -597 -108 -1272 -230 -1500 -271 -830 -150 -1022 -184 -1410 -254
-589 -106 -882 -160 -907 -165 -46 -11 -51 -72 -8 -89 9 -3 89 7 178 24 89 16
326 59 527 95 803 145 2013 363 2880 520 683 123 1077 195 1500 271 168 30
465 84 660 119 195 35 654 118 1020 184 366 66 1129 204 1695 306 1142 206
1604 290 2050 370 165 30 489 88 720 130 231 42 528 96 660 119 785 141 938
171 952 184 28 29 -6 84 -47 76z"/>
<path d="M31720 31685 c-157 -30 -451 -83 -655 -120 -203 -37 -527 -95 -720
-130 -192 -35 -516 -93 -720 -130 -203 -37 -541 -98 -750 -135 -209 -38 -618
-112 -910 -165 -291 -52 -604 -109 -695 -125 -91 -17 -340 -62 -555 -100 -214
-39 -424 -77 -465 -85 -41 -7 -192 -35 -335 -60 -143 -26 -417 -75 -610 -110
-192 -35 -528 -95 -745 -135 -217 -39 -555 -100 -750 -135 -195 -35 -517 -93
-715 -129 -198 -36 -574 -104 -835 -151 -261 -47 -587 -106 -725 -131 -137
-25 -351 -63 -475 -85 -219 -40 -260 -53 -260 -86 0 -7 9 -22 19 -32 18 -18
24 -18 92 -6 41 8 175 32 299 54 203 36 1077 194 1420 256 339 61 1109 200
1440 260 201 36 412 74 470 85 58 10 281 51 495 89 471 85 2150 388 2855 516
162 29 437 79 610 110 173 30 360 64 415 75 55 10 217 39 360 65 143 25 305
54 360 65 55 10 204 37 330 60 127 22 277 49 335 60 58 11 269 49 470 85 201
36 500 90 665 120 165 30 365 66 445 80 182 32 179 31 186 61 7 28 -19 65 -45
63 -9 -1 -144 -25 -301 -54z"/>
<path d="M31880 30790 c-52 -10 -635 -116 -1295 -235 -1051 -189 -1592 -287
-2330 -420 -104 -19 -327 -59 -495 -89 -168 -30 -516 -93 -775 -140 -258 -47
-598 -108 -755 -136 -257 -46 -481 -86 -1250 -225 -486 -88 -1089 -196 -1275
-230 -104 -19 -352 -63 -550 -99 -519 -93 -1096 -197 -1510 -272 -198 -35
-470 -85 -605 -109 -386 -70 -1154 -208 -1505 -271 -176 -31 -326 -61 -332
-67 -20 -15 -16 -65 5 -76 14 -7 95 4 293 40 151 27 373 67 494 89 121 22 432
78 690 124 581 105 948 171 1085 196 230 41 1403 252 1525 274 72 14 207 38
300 55 94 17 334 60 535 96 557 100 1139 205 1610 290 135 24 382 69 550 99
599 108 811 146 1225 221 231 42 506 91 610 110 105 19 327 59 495 89 168 31
618 112 1000 180 382 69 781 141 885 160 105 19 471 84 815 146 344 61 643
117 665 123 34 10 41 17 43 42 3 19 -2 33 -14 42 -21 15 -12 16 -134 -7z"/>
<path d="M31765 29854 c-132 -24 -413 -76 -625 -114 -212 -38 -596 -108 -855
-154 -258 -47 -634 -115 -835 -151 -201 -36 -590 -106 -865 -156 -936 -169
-1200 -217 -1494 -270 -275 -50 -294 -54 -304 -77 -14 -31 1 -56 36 -60 15 -2
102 10 194 27 93 17 407 74 698 126 292 53 640 116 775 140 135 24 459 83 720
130 261 47 585 106 720 130 851 154 1353 244 1700 307 217 39 405 77 418 84
26 17 29 46 6 68 -20 20 -8 22 -289 -30z"/>
<path d="M31990 28974 c-8 -2 -116 -21 -240 -43 -124 -22 -463 -83 -755 -136
-291 -53 -705 -127 -920 -166 -214 -39 -536 -97 -715 -129 -179 -33 -462 -84
-630 -114 -443 -80 -976 -176 -1450 -262 -228 -41 -575 -104 -770 -139 -195
-35 -533 -96 -750 -135 -217 -39 -552 -100 -745 -135 -192 -35 -480 -87 -640
-115 -299 -54 -319 -61 -313 -104 6 -40 36 -45 138 -25 52 10 298 54 545 99
248 44 637 114 865 156 228 41 541 97 695 125 154 28 352 64 440 80 146 26
629 113 1655 299 212 38 547 98 745 134 198 36 524 95 725 131 201 36 525 95
720 130 195 35 508 92 695 125 187 34 385 70 440 80 55 10 145 26 200 36 115
20 145 34 145 69 0 34 -32 50 -80 39z"/>
<path d="M22490 28180 c-173 -32 -515 -95 -760 -139 -245 -44 -634 -114 -865
-156 -231 -42 -631 -114 -890 -161 -258 -46 -535 -96 -615 -111 -80 -14 -151
-30 -158 -36 -7 -6 -12 -24 -10 -41 3 -28 7 -31 39 -34 19 -2 273 40 565 93
291 53 639 116 774 140 135 24 484 87 775 140 292 53 706 127 920 166 664 119
625 110 625 153 0 31 -19 46 -54 45 -17 -1 -173 -27 -346 -59z"/>
<path d="M32025 28073 c-34 -7 -848 -155 -3985 -723 -459 -83 -1229 -223
-1710 -310 -2352 -427 -5400 -980 -6370 -1156 -635 -115 -748 -138 -762 -155
-24 -28 -10 -63 28 -67 16 -2 540 90 1164 203 624 113 1815 329 2645 480 831
151 1960 356 2510 455 550 100 1059 192 1130 205 72 14 542 99 1045 190 503
91 1061 192 1240 225 403 74 1994 362 2625 476 259 46 480 87 492 89 35 8 48
41 28 71 -15 23 -34 27 -80 17z"/>
<path d="M31670 27080 c-173 -32 -493 -90 -710 -130 -396 -71 -635 -114 -1415
-255 -1070 -193 -1270 -229 -1555 -281 -168 -30 -465 -84 -660 -119 -195 -35
-519 -94 -720 -130 -591 -107 -1320 -238 -2160 -390 -570 -103 -1485 -268
-2030 -366 -278 -51 -511 -96 -518 -102 -7 -6 -12 -24 -10 -41 3 -27 7 -31 37
-34 19 -2 84 6 145 17 104 19 745 135 1311 237 138 24 297 53 355 64 58 11
357 65 665 120 308 55 796 144 1085 196 289 52 611 110 715 129 105 19 429 77
720 130 292 53 667 121 835 151 168 30 490 88 715 129 226 41 538 97 695 125
157 28 319 57 360 65 41 8 352 64 690 125 338 61 662 119 720 130 58 11 283
51 500 90 594 107 603 109 619 125 11 11 13 21 5 42 -8 23 -16 28 -44 30 -19
1 -177 -25 -350 -57z"/>
<path d="M21465 27075 c-300 -55 -684 -125 -1635 -296 -305 -55 -570 -103
-589 -107 -41 -9 -63 -38 -50 -69 12 -33 33 -31 375 31 289 53 706 128 1644
297 245 44 478 86 519 94 75 13 91 24 91 61 0 26 -19 44 -44 43 -12 0 -151
-25 -311 -54z"/>
<path d="M10535 34039 c-729 -514 -1532 -906 -2215 -1080 -167 -42 -200 -61
-179 -100 17 -32 37 -34 138 -9 664 157 1493 549 2216 1045 148 101 171 127
148 164 -18 28 -47 23 -108 -20z"/>
<path d="M10861 33637 c-69 -67 -168 -160 -218 -206 -93 -84 -109 -111 -81
-139 7 -7 22 -12 33 -12 25 0 180 137 343 302 89 90 103 109 100 133 -2 18
-11 31 -27 37 -21 7 -37 -5 -150 -115z"/>
<path d="M11378 33378 c-19 -24 -61 -77 -93 -118 -380 -481 -987 -995 -1591
-1350 -132 -77 -477 -254 -611 -314 -67 -29 -88 -61 -63 -91 21 -26 56 -17
212 56 484 224 939 515 1383 885 153 128 466 433 605 589 129 146 260 315 260
337 0 22 -27 48 -50 48 -10 0 -34 -19 -52 -42z"/>
<path d="M11885 33158 c-8 -13 -55 -84 -104 -158 -486 -749 -1255 -1453 -2111
-1936 -149 -83 -169 -104 -140 -140 23 -27 65 -13 214 72 383 219 758 487
1091 779 147 129 474 461 600 609 197 230 378 475 490 660 40 67 46 84 39 105
-13 36 -56 41 -79 9z"/>
<path d="M10055 32970 c-286 -202 -692 -426 -1008 -554 -138 -57 -416 -152
-516 -177 -57 -14 -86 -43 -75 -73 12 -31 45 -34 119 -14 525 147 1062 408
1565 760 109 76 136 108 119 140 -19 36 -60 20 -204 -82z"/>
<path d="M12388 32823 c-211 -444 -547 -944 -900 -1342 -57 -64 -69 -96 -46
-119 27 -27 56 -12 122 61 344 384 703 920 913 1364 39 81 44 99 34 119 -8 18
-19 24 -41 24 -29 0 -33 -6 -82 -107z"/>
<path d="M10960 30969 c-230 -191 -524 -390 -727 -493 -45 -22 -53 -31 -53
-54 0 -32 16 -52 42 -52 53 0 466 260 673 424 216 171 239 198 203 234 -24 24
-54 11 -138 -59z"/>
<path d="M12425 31031 c-33 -14 -66 -57 -75 -97 -13 -58 10 -103 86 -164 90
-73 86 -104 -12 -105 -107 -2 -163 -96 -119 -202 20 -47 19 -70 -4 -82 -10 -6
-20 -9 -22 -7 -2 2 -56 7 -119 11 -63 4 -118 9 -121 11 -3 1 -66 6 -140 9
-125 6 -136 5 -167 -15 -58 -36 -65 -70 -58 -279 4 -112 11 -189 17 -198 14
-16 51 -17 67 -1 8 8 12 67 12 199 0 145 3 189 14 198 13 11 34 10 388 -20
141 -11 160 -9 201 29 43 40 51 89 28 159 -26 78 -18 93 54 93 48 0 60 4 91
33 20 19 38 46 43 67 13 60 -4 94 -79 162 -67 60 -83 89 -58 104 6 4 129 6
273 5 223 -2 263 0 274 13 19 22 9 59 -18 73 -29 14 -523 17 -556 4z"/>
<path d="M13125 26959 c-368 -32 -480 -64 -579 -163 -73 -72 -98 -202 -57
-292 42 -93 208 -239 411 -365 111 -68 116 -74 168 -244 38 -122 62 -162 107
-181 31 -13 39 -12 72 1 21 9 46 23 57 33 28 25 94 130 107 171 7 22 14 154
18 336 6 288 8 302 30 348 31 63 60 77 159 77 96 0 157 27 184 80 16 32 16 34
-4 63 -42 58 -141 107 -264 128 -80 14 -299 18 -409 8z"/>
<path d="M14644 22655 c-135 -29 -154 -43 -322 -234 -61 -69 -110 -95 -252
-136 -170 -48 -209 -85 -196 -189 12 -103 -39 -200 -146 -281 -84 -63 -133
-87 -288 -139 -72 -25 -152 -57 -178 -72 -116 -68 -188 -185 -180 -292 7 -78
44 -124 146 -181 112 -62 151 -96 174 -149 28 -63 20 -134 -36 -310 -51 -159
-55 -188 -27 -224 25 -31 121 -79 230 -114 49 -16 97 -39 117 -56 45 -40 80
-115 103 -223 23 -107 42 -158 117 -307 70 -140 158 -286 241 -401 72 -101 87
-128 98 -177 22 -95 2 -184 -98 -455 -30 -82 -56 -166 -57 -185 -6 -104 9
-125 81 -118 57 6 105 39 149 102 75 110 230 464 283 647 37 124 67 408 92
849 3 52 7 127 10 165 2 39 7 120 11 180 15 271 35 298 296 413 235 104 302
162 332 287 18 75 28 407 16 513 -12 102 -43 180 -98 244 -25 29 -58 80 -73
113 -55 116 -109 381 -109 529 0 37 -6 82 -14 100 -38 91 -244 140 -422 101z"/>
<path d="M40890 37563 c-1124 -73 -1904 -865 -2034 -2063 -21 -197 -15 -597
13 -797 70 -506 217 -965 460 -1438 54 -104 125 -235 159 -291 59 -98 60 -102
51 -145 -24 -107 -237 -495 -476 -867 -91 -141 -110 -178 -104 -195 14 -37 53
-32 217 33 370 145 793 269 926 272 l69 2 137 -136 c678 -667 1500 -1086 2312
-1178 134 -16 437 -16 562 -1 859 101 1511 629 1792 1452 202 595 188 1358
-40 2081 -25 78 -42 96 -78 82 -32 -12 -34 -44 -9 -123 67 -215 131 -525 158
-766 19 -167 13 -623 -9 -765 -88 -550 -281 -961 -604 -1288 -168 -169 -329
-284 -546 -387 -549 -263 -1216 -273 -1916 -29 -560 194 -1076 524 -1577 1008
-127 122 -134 127 -187 136 -132 21 -446 -54 -853 -206 -95 -35 -174 -64 -177
-64 -3 0 23 44 57 98 180 278 353 592 408 744 18 47 32 105 32 133 2 46 -5 62
-82 190 -588 989 -769 2120 -481 2997 115 349 283 622 531 864 291 282 649
457 1089 530 133 22 500 27 650 9 393 -49 747 -158 1134 -352 469 -235 928
-588 1304 -1003 52 -58 103 -108 112 -112 24 -9 60 18 60 45 0 14 -49 74 -139
172 -700 757 -1602 1248 -2471 1345 -95 11 -365 19 -450 13z"/>
<path d="M8955 37377 c-139 -47 -226 -130 -275 -264 -31 -86 -26 -212 12 -295
48 -103 148 -191 256 -225 62 -19 185 -18 242 2 107 38 201 122 248 223 24 51
27 69 27 167 0 100 -2 115 -28 167 -43 88 -107 152 -194 195 -66 33 -85 37
-161 40 -53 2 -103 -2 -127 -10z m241 -111 c66 -30 120 -85 153 -155 35 -76
36 -183 1 -256 -86 -177 -294 -237 -457 -130 -65 43 -109 106 -129 186 -64
249 196 463 432 355z"/>
<path d="M41544 36824 c-412 -69 -690 -408 -708 -863 -9 -208 34 -394 175
-764 95 -250 127 -364 141 -517 16 -163 -3 -289 -72 -479 -29 -78 -50 -144
-49 -145 7 -5 417 -136 426 -136 11 0 115 254 131 320 62 259 40 541 -66 835
-22 61 -61 169 -87 240 -74 206 -98 318 -99 465 -1 141 10 199 59 307 106 232
346 301 671 193 129 -43 290 -166 402 -306 36 -46 70 -83 74 -82 4 2 66 90
137 197 96 144 128 198 121 210 -4 9 -35 43 -67 77 -301 313 -822 510 -1189
448z"/>
<path d="M44422 35808 c-13 -6 -60 -66 -106 -132 -45 -67 -298 -434 -561 -816
-906 -1316 -967 -1405 -977 -1430 -6 -17 -6 -37 1 -62 10 -32 35 -54 191 -170
98 -73 190 -137 203 -142 13 -5 40 -6 60 -2 38 7 71 48 1102 1330 94 116 290
360 436 541 146 182 273 342 283 357 19 28 23 69 12 105 -4 13 -117 104 -277
224 -284 211 -311 225 -367 197z"/>
<path d="M40931 33569 c-173 -33 -301 -217 -289 -415 9 -130 75 -226 197 -283
48 -22 69 -26 151 -26 84 0 101 3 148 28 105 55 180 165 203 296 20 112 -22
245 -98 312 -83 73 -208 108 -312 88z"/>
<path d="M42428 32776 c-281 -116 -315 -514 -53 -638 47 -22 74 -28 127 -28
251 0 424 253 340 495 -23 68 -110 156 -176 178 -72 25 -169 22 -238 -7z"/>
<path d="M9265 27087 c-51 -17 -81 -36 -175 -111 -632 -505 -1174 -1182 -1536
-1921 -333 -682 -506 -1339 -570 -2165 -7 -100 -8 -593 0 -665 3 -27 8 -93 11
-145 10 -140 52 -443 86 -620 142 -730 438 -1448 852 -2065 969 -1444 2523
-2353 4242 -2483 l90 -7 3 -522 2 -523 -42 -1 c-24 0 -50 -2 -58 -3 -8 -2 -58
-6 -110 -10 -52 -4 -108 -9 -125 -11 -16 -2 -100 -14 -185 -25 -563 -77 -981
-244 -1074 -432 -48 -97 -31 -166 63 -258 152 -148 460 -262 916 -339 304 -52
522 -66 980 -65 526 1 896 44 1277 148 245 67 415 147 519 244 122 112 132
222 33 332 -171 189 -681 348 -1284 400 -69 6 -141 13 -160 15 -19 2 -52 4
-73 5 l-37 0 2 522 3 523 150 11 c684 53 1394 252 2025 568 322 162 453 243
499 309 115 167 60 382 -121 479 -36 19 -58 23 -138 23 l-95 0 -155 -88 c-673
-384 -1362 -596 -2125 -656 -140 -11 -577 -11 -720 0 -971 76 -1860 411 -2630
992 -353 268 -717 633 -987 992 -557 741 -904 1647 -983 2565 -3 36 -8 83 -11
105 -7 59 -6 607 1 695 3 41 13 136 21 210 142 1312 798 2512 1831 3352 133
109 163 146 189 234 42 146 -37 312 -181 375 -60 27 -164 34 -220 16z"/>
<path d="M42455 17410 c-173 -37 -275 -84 -489 -222 -1623 -1051 -3581 -1722
-5521 -1893 -146 -13 -355 -30 -605 -50 -222 -17 -332 -26 -380 -30 -30 -2
-93 -7 -140 -10 -47 -3 -101 -8 -120 -10 -19 -2 -78 -7 -130 -10 -52 -3 -111
-8 -130 -10 -19 -2 -73 -7 -120 -10 -47 -3 -105 -8 -130 -10 -25 -2 -106 -9
-180 -15 -74 -6 -155 -12 -180 -15 -25 -2 -88 -7 -140 -10 -117 -9 -198 -25
-323 -65 -499 -160 -923 -522 -1157 -990 -70 -139 -114 -256 -150 -394 -62
-242 -59 -67 -63 -3212 -3 -2595 -2 -2871 12 -2867 22 5 493 93 498 93 4 0 1
156 -12 620 -3 96 -7 434 -10 750 -3 316 -8 667 -10 780 -3 113 -8 846 -11
1630 -5 1083 -4 1450 5 1530 93 810 655 1481 1437 1714 132 39 172 44 584 76
217 17 476 37 575 45 99 8 243 19 320 25 77 6 217 17 310 25 94 8 211 17 260
20 50 3 106 8 125 10 19 2 76 7 125 10 444 29 1019 105 1483 196 1537 299
2954 870 4282 1724 225 145 477 298 555 338 105 52 190 72 318 71 64 0 117 1
117 2 0 11 -201 74 -382 120 -214 54 -229 56 -378 60 -127 3 -171 0 -245 -16z"/>
<path d="M43502 15402 c-7 -2 -77 -133 -156 -290 -620 -1244 -1322 -2290
-2191 -3267 -192 -216 -649 -680 -870 -885 -825 -763 -1646 -1347 -2715 -1932
-115 -64 -362 -185 -464 -228 -490 -208 -1384 -486 -2316 -721 -307 -77 -325
-86 -281 -140 l19 -24 214 53 c966 242 1842 512 2383 737 323 134 893 449
1399 773 1206 772 2282 1744 3198 2890 660 826 1232 1732 1730 2740 103 209
119 247 110 267 -11 23 -37 35 -60 27z"/>
<path d="M16095 11262 c-168 -58 -271 -189 -282 -360 -15 -218 137 -406 349
-430 321 -37 557 283 424 574 -82 179 -309 279 -491 216z m243 -103 c69 -30
116 -73 153 -141 31 -57 34 -71 34 -143 0 -60 -6 -91 -22 -126 -30 -66 -86
-124 -151 -156 -48 -24 -70 -28 -137 -28 -72 0 -86 3 -143 34 -186 101 -225
339 -79 489 93 97 226 124 345 71z"/>
<path d="M19223 10089 c-26 -9 -38 -42 -24 -66 5 -10 64 -72 130 -137 114
-114 121 -119 145 -108 50 23 36 54 -86 184 -61 65 -118 123 -127 127 -9 5
-26 5 -38 0z"/>
<path d="M20082 9947 c-120 -120 -137 -148 -110 -175 28 -28 55 -10 176 111
94 94 122 128 122 149 0 26 -16 38 -48 38 -10 0 -72 -55 -140 -123z"/>
<path d="M19317 9194 c-65 -64 -122 -124 -127 -134 -12 -23 14 -60 43 -60 15
0 62 40 145 123 120 120 137 148 110 175 -27 27 -55 10 -171 -104z"/>
<path d="M19973 9288 c-29 -38 -24 -48 98 -178 102 -109 126 -130 150 -130 33
0 58 36 43 63 -5 8 -62 70 -127 136 -113 117 -143 136 -164 109z"/>
</g>
</svg>
