<?xml version="1.0" encoding="UTF-8"?>
<!DOCTYPE svg PUBLIC "-//W3C//DTD SVG 1.1//EN" "http://www.w3.org/Graphics/SVG/1.1/DTD/svg11.dtd">
<svg xmlns="http://www.w3.org/2000/svg" version="1.1" width="1078px" height="876px" style="shape-rendering:geometricPrecision; text-rendering:geometricPrecision; image-rendering:optimizeQuality; fill-rule:evenodd; clip-rule:evenodd" xmlns:xlink="http://www.w3.org/1999/xlink">
<g><path style="opacity:1" fill="#cbd5da" d="M 669.5,191.5 C 620.879,190.564 588.046,212.898 571,258.5C 560.068,295.847 562.735,332.18 579,367.5C 599.071,401.96 629.237,418.293 669.5,416.5C 669.5,456.167 669.5,495.833 669.5,535.5C 645.397,506.399 614.397,494.232 576.5,499C 536.612,507.031 510.778,530.531 499,569.5C 491.503,598.236 491.837,626.903 500,655.5C 515.369,698.852 546.036,721.519 592,723.5C 624.189,723.409 650.022,710.742 669.5,685.5C 669.5,714.833 669.5,744.167 669.5,773.5C 447.915,806.845 226.415,840.512 5,874.5C 4.33333,583.167 4.33333,291.833 5,0.5C 226.389,34.0081 447.889,67.0081 669.5,99.5C 669.5,130.167 669.5,160.833 669.5,191.5 Z"/></g>
<g><path style="opacity:0.988" fill="#cad4d9" d="M 812.5,111.5 C 828.226,111.82 836.893,119.653 838.5,135C 837.342,149.656 829.342,157.49 814.5,158.5C 795.07,155.642 787.57,144.642 792,125.5C 796.592,117.461 803.426,112.794 812.5,111.5 Z"/></g>
<g><path style="opacity:1" fill="#1f2225" d="M 280.5,121.5 C 280.5,218.167 280.5,314.833 280.5,411.5C 269.5,411.5 258.5,411.5 247.5,411.5C 247.5,314.833 247.5,218.167 247.5,121.5C 258.5,121.5 269.5,121.5 280.5,121.5 Z"/></g>
<g><path style="opacity:1" fill="#656b70" d="M 280.5,121.5 C 281.499,218.332 281.833,315.332 281.5,412.5C 269.988,412.828 258.654,412.495 247.5,411.5C 258.5,411.5 269.5,411.5 280.5,411.5C 280.5,314.833 280.5,218.167 280.5,121.5 Z"/></g>
<g><path style="opacity:0.994" fill="#cbd5da" d="M 1040.5,120.5 C 1051.83,120.5 1063.17,120.5 1074.5,120.5C 1074.5,217.833 1074.5,315.167 1074.5,412.5C 1063.5,412.5 1052.5,412.5 1041.5,412.5C 1041.5,401.167 1041.5,389.833 1041.5,378.5C 1040.18,378.33 1039.01,378.663 1038,379.5C 1024.47,404.437 1003.47,417.104 975,417.5C 930.956,414.798 901.956,392.465 888,350.5C 879.066,318.393 879.399,286.393 889,254.5C 906.929,207.268 941.096,186.435 991.5,192C 1002.79,193.98 1012.79,198.647 1021.5,206C 1027.72,213.38 1033.72,220.88 1039.5,228.5C 1040.5,192.506 1040.83,156.506 1040.5,120.5 Z M 976.5,221.5 C 1004.43,221.602 1023.6,234.602 1034,260.5C 1044.07,291.413 1043.07,322.08 1031,352.5C 1016.49,379.687 993.991,390.187 963.5,384C 941.469,376.298 927.302,361.132 921,338.5C 914.469,312.633 915.136,286.966 923,261.5C 932.602,236.816 950.436,223.483 976.5,221.5 Z"/></g>
<g><path style="opacity:1" fill="#1f2225" d="M 669.5,191.5 C 669.833,191.5 670.167,191.5 670.5,191.5C 670.5,201.833 670.5,212.167 670.5,222.5C 670.167,222.5 669.833,222.5 669.5,222.5C 643.705,219.646 623.871,229.313 610,251.5C 594.88,282.839 593.546,314.839 606,347.5C 618.418,375.276 639.584,387.942 669.5,385.5C 669.833,385.5 670.167,385.5 670.5,385.5C 670.5,395.833 670.5,406.167 670.5,416.5C 670.167,416.5 669.833,416.5 669.5,416.5C 629.237,418.293 599.071,401.96 579,367.5C 562.735,332.18 560.068,295.847 571,258.5C 588.046,212.898 620.879,190.564 669.5,191.5 Z"/></g>
<g><path style="opacity:1" fill="#858d91" d="M 670.5,191.5 C 673.167,191.5 675.833,191.5 678.5,191.5C 676.393,192.468 674.059,192.802 671.5,192.5C 671.5,202.167 671.5,211.833 671.5,221.5C 672.791,221.263 673.791,221.596 674.5,222.5C 673.167,222.5 671.833,222.5 670.5,222.5C 670.5,212.167 670.5,201.833 670.5,191.5 Z"/></g>
<g><path style="opacity:1" fill="#c7d1d6" d="M 678.5,191.5 C 717.389,197.766 741.056,220.1 749.5,258.5C 737.833,259.833 726.167,259.833 714.5,258.5C 707.762,239.092 694.429,227.092 674.5,222.5C 673.791,221.596 672.791,221.263 671.5,221.5C 671.5,211.833 671.5,202.167 671.5,192.5C 674.059,192.802 676.393,192.468 678.5,191.5 Z"/></g>
<g><path style="opacity:1" fill="#1f2225" d="M 479.5,324.5 C 480.499,281.337 480.832,238.003 480.5,194.5C 491.167,194.5 501.833,194.5 512.5,194.5C 512.5,266.833 512.5,339.167 512.5,411.5C 501.5,411.5 490.5,411.5 479.5,411.5C 479.5,399.5 479.5,387.5 479.5,375.5C 478.325,375.281 477.325,375.614 476.5,376.5C 465.871,397.624 448.871,410.124 425.5,414C 376.724,417.561 349.224,395.061 343,346.5C 342.5,295.834 342.333,245.168 342.5,194.5C 353.5,194.5 364.5,194.5 375.5,194.5C 375.333,241.501 375.5,288.501 376,335.5C 377.321,358.476 388.821,373.643 410.5,381C 435.695,385.15 455.861,376.983 471,356.5C 476.556,346.554 479.389,335.887 479.5,324.5 Z"/></g>
<g><path style="opacity:1" fill="#54595c" d="M 479.5,411.5 C 490.5,411.5 501.5,411.5 512.5,411.5C 512.5,339.167 512.5,266.833 512.5,194.5C 501.833,194.5 491.167,194.5 480.5,194.5C 480.832,238.003 480.499,281.337 479.5,324.5C 479.5,280.833 479.5,237.167 479.5,193.5C 490.833,193.5 502.167,193.5 513.5,193.5C 513.5,266.5 513.5,339.5 513.5,412.5C 501.988,412.828 490.654,412.495 479.5,411.5 Z"/></g>
<g><path style="opacity:0.984" fill="#cbd5da" d="M 796.5,193.5 C 808.167,193.5 819.833,193.5 831.5,193.5C 831.5,266.5 831.5,339.5 831.5,412.5C 819.833,412.5 808.167,412.5 796.5,412.5C 796.5,339.5 796.5,266.5 796.5,193.5 Z"/></g>
<g><path style="opacity:1" fill="#cbd5da" d="M 669.5,222.5 C 669.5,276.833 669.5,331.167 669.5,385.5C 639.584,387.942 618.418,375.276 606,347.5C 593.546,314.839 594.88,282.839 610,251.5C 623.871,229.313 643.705,219.646 669.5,222.5 Z"/></g>
<g><path style="opacity:0.208" fill="#788283" d="M 748.5,349.5 C 737.265,348.181 725.931,348.181 714.5,349.5C 719.96,348.171 725.793,347.504 732,347.5C 737.833,347.833 743.667,348.167 749.5,348.5C 749.376,349.107 749.043,349.44 748.5,349.5 Z"/></g>
<g><path style="opacity:1" fill="#c8d2d7" d="M 748.5,349.5 C 743.917,378.253 728.25,398.419 701.5,410C 693.718,413.096 685.718,415.263 677.5,416.5C 675.735,415.539 673.735,415.205 671.5,415.5C 671.5,405.5 671.5,395.5 671.5,385.5C 693.151,382.179 707.484,370.179 714.5,349.5C 725.931,348.181 737.265,348.181 748.5,349.5 Z"/></g>
<g><path style="opacity:1" fill="#82898d" d="M 670.5,385.5 C 670.833,385.5 671.167,385.5 671.5,385.5C 671.5,395.5 671.5,405.5 671.5,415.5C 673.735,415.205 675.735,415.539 677.5,416.5C 675.167,416.5 672.833,416.5 670.5,416.5C 670.5,406.167 670.5,395.833 670.5,385.5 Z"/></g>
<g><path style="opacity:1" fill="#1f2225" d="M 442.5,661.5 C 443.499,585.668 443.833,509.668 443.5,433.5C 454.833,433.5 466.167,433.5 477.5,433.5C 477.5,530.167 477.5,626.833 477.5,723.5C 465.919,723.821 454.419,723.488 443,722.5C 390.623,646.913 338.123,571.413 285.5,496C 284.552,495.517 283.552,495.351 282.5,495.5C 282.5,571.5 282.5,647.5 282.5,723.5C 270.833,723.5 259.167,723.5 247.5,723.5C 247.5,626.5 247.5,529.5 247.5,432.5C 259.081,432.179 270.581,432.512 282,433.5C 334.305,509.305 386.805,584.971 439.5,660.5C 440.325,661.386 441.325,661.719 442.5,661.5 Z"/></g>
<g><path style="opacity:1" fill="#8e9599" d="M 477.5,723.5 C 477.5,626.833 477.5,530.167 477.5,433.5C 466.167,433.5 454.833,433.5 443.5,433.5C 443.833,509.668 443.499,585.668 442.5,661.5C 442.5,585.167 442.5,508.833 442.5,432.5C 454.5,432.5 466.5,432.5 478.5,432.5C 478.833,529.668 478.499,626.668 477.5,723.5 Z"/></g>
<g><path style="opacity:0.997" fill="#cbd5da" d="M 707.5,449.5 C 719.167,449.5 730.833,449.5 742.5,449.5C 742.5,467.167 742.5,484.833 742.5,502.5C 758.167,502.5 773.833,502.5 789.5,502.5C 789.5,512.167 789.5,521.833 789.5,531.5C 773.833,531.5 758.167,531.5 742.5,531.5C 742.333,576.501 742.5,621.501 743,666.5C 745.028,683.276 754.528,691.276 771.5,690.5C 776.273,690.482 780.94,689.815 785.5,688.5C 788.782,698.96 791.115,709.627 792.5,720.5C 768.717,727.387 746.717,723.887 726.5,710C 713.947,698.694 707.78,684.527 708,667.5C 707.5,622.168 707.333,576.835 707.5,531.5C 696.833,531.5 686.167,531.5 675.5,531.5C 675.5,521.833 675.5,512.167 675.5,502.5C 686.167,502.5 696.833,502.5 707.5,502.5C 707.5,484.833 707.5,467.167 707.5,449.5 Z"/></g>
<g><path style="opacity:0.993" fill="#cbd5da" d="M 873.5,497.5 C 934.434,498.596 967.601,529.596 973,590.5C 973.5,600.828 973.666,611.161 973.5,621.5C 920.833,621.5 868.167,621.5 815.5,621.5C 815.63,644.917 824.297,664.417 841.5,680C 862.815,693.459 885.482,696.126 909.5,688C 922.764,681.902 932.097,672.069 937.5,658.5C 948.567,661.682 959.567,665.016 970.5,668.5C 959.028,698.587 937.362,716.421 905.5,722C 879.692,726.679 855.025,723.345 831.5,712C 805.952,696.085 790.119,673.251 784,643.5C 778.173,613.049 780.84,583.382 792,554.5C 808.157,519.524 835.324,500.524 873.5,497.5 Z M 874.5,528.5 C 914.96,529.959 936.293,550.959 938.5,591.5C 897.5,591.5 856.5,591.5 815.5,591.5C 819.865,555.811 839.532,534.811 874.5,528.5 Z"/></g>
<g><path style="opacity:1" fill="#202326" d="M 669.5,535.5 C 670.167,536.5 670.833,537.5 671.5,538.5C 670.167,586.833 670.167,635.167 671.5,683.5C 671.167,684.5 670.5,685.167 669.5,685.5C 650.022,710.742 624.189,723.409 592,723.5C 546.036,721.519 515.369,698.852 500,655.5C 491.837,626.903 491.503,598.236 499,569.5C 510.778,530.531 536.612,507.031 576.5,499C 614.397,494.232 645.397,506.399 669.5,535.5 Z"/></g>
<g><path style="opacity:1" fill="#cbd5da" d="M 579.5,528.5 C 619.124,524.723 643.957,542.057 654,580.5C 661.388,611.448 657.388,640.781 642,668.5C 627.868,687.142 609.035,695.308 585.5,693C 561.965,690.473 545.465,678.306 536,656.5C 525.513,627.724 524.846,598.724 534,569.5C 542.206,547.858 557.373,534.191 579.5,528.5 Z"/></g>
<g><path style="opacity:1" fill="#82898d" d="M 671.5,538.5 C 672.338,538.842 672.672,539.508 672.5,540.5C 671.167,587.5 671.167,634.5 672.5,681.5C 672.167,682.167 671.833,682.833 671.5,683.5C 670.167,635.167 670.167,586.833 671.5,538.5 Z"/></g>
<g><path style="opacity:1" fill="#c7d1d6" d="M 672.5,540.5 C 682.159,555.3 687.992,571.633 690,589.5C 693.749,616.763 690.416,643.096 680,668.5C 677.978,673.223 675.478,677.557 672.5,681.5C 671.167,634.5 671.167,587.5 672.5,540.5 Z"/></g>
<g><path style="opacity:0.988" fill="#265673" d="M 1027.5,636.5 C 1051.53,636.256 1067.03,647.589 1074,670.5C 1077.56,697.561 1066.4,715.061 1040.5,723C 1009.31,725.636 991.641,711.47 987.5,680.5C 989.422,655.252 1002.76,640.585 1027.5,636.5 Z"/></g>
</svg>
